<?xml version="1.0" encoding="UTF-8"?>
<svg width="1200pt" height="1200pt" version="1.1" viewBox="0 0 1200 1200" xmlns="http://www.w3.org/2000/svg">
 <path d="m484.83 675.69 347.09 124.57 67.34-124.57zm349.16 157.69c7.0703 2.5312 15.031-0.47656 18.59-7.1133l32.742-60.57h90.359c57.477 0 56.414 100.4-8.2266 100.4h-562.91v-79.492c0-25.324 26.781-22.293 46.941-21.445l193.92 0.53906zm-273.87-98.289h-91.43c-39.961 0-94.754-11.77-94.754 51.512v160.14c0 42.48-64.855 42.488-64.855 0v-151.52c0-45.496-45.879-60.359-81.535-60.082-34.109 0.26562-37.438-59.457 2.75-59.457h164.32zm373.86-59.402-32.109 59.402h73.812c38.906 0 38.906-59.402 0-59.402zm84.492 72.938c34.805 26.305 38.262 82.457 12.441 117.47 51.254 0 42.605-8.0039 42.605 86.789 0 111.51-112.59 187.04-226.37 187.04h-488.32c-113.79 0-226.37-75.535-226.37-187.04 0-94.793-8.6484-86.789 42.613-86.789-25.828-34.996-22.316-90.98 12.281-117.28-22.414-23.141-22.398-63.223 0.035156-86.562-21.328-15.434-31.008-39.98-30.469-66.543-42.723 15.922-77.328-24.188-48.715-66.738l39.516-62.152c-8.4297-0.023438-15.258-6.8672-15.258-15.305 0-521.93 941.06-521.93 941.06 0 0 13.934-11.941 15.305-21.105 15.305l39.516 62.152c25.609 38.07 0.85156 77.391-42.84 67.406 0.44531 26.234-9.4492 50.676-30.523 65.871 22.352 23.336 22.32 63.09-0.097656 86.375zm-825.11 88.328c14.852 35.211 48.68 29.145 85.109 29.145v-70.867c0-25.066-33.508-29.887-51.371-29.484-33.09 0.75-46.41 41.137-33.738 71.207zm849.24-400.73c-18.246-460.92-860.99-460.92-879.23-0.003906h879.23zm-26.426 30.605h-832.23l-50.965 79.988c-8.9453 11.891-5.918 26.438 12.496 20.629 40.234-12.695 93.754-42.004 134.23-37.219 43.68 5.1641 58.137 37.328 98.402 37.328 43.004 0 63.723-40.621 113.75-40.621 58.867 0 90.945 68.734 154.11 28.375 59.309-37.902 87.469-37.902 146.79 0 25.551 16.328 55.16 16.324 80.715 0 79.07-50.52 106.17-17.574 181.75 11.117 12.707 4.2461 23.719-1.6562 10.965-20.996l-49.996-78.602zm26.73 429.88h-638.37c0 45.328 7.7812 89.328-37.895 107.56-38.641 15.426-88.176-6.8516-88.176-57.52v-50.043h-115.41v56.18c0 93.98 98.805 156.43 195.76 156.43h488.32c96.957 0 195.77-62.453 195.77-156.43zm-812.61-251.62h745.39c33.805 0 48.902-32.191 40.621-62.062-60.547-25.812-74.035-35.508-126.46-2.0117-35.793 22.871-77.684 22.871-113.47 0-48.852-31.219-65.176-31.211-114.02 0-35.793 22.871-77.691 22.871-113.48 0-48.844-31.215-65.176-31.215-114.02 0-35.793 22.871-77.684 22.871-113.47 0-52.094-33.289-65.309-22.219-131.81 2.5508-8.0469 29.875 7.3164 61.523 40.734 61.523zm70.406-311.02c20.668-53.605 65.105-90.145 119.36-115.24 18.277-8.4531 5.4297-36.164-12.789-27.734-61.637 28.512-111.36 70.688-135.02 131.97-7.2344 18.742 21.219 29.723 28.453 11zm288.14-124.23c18.527 10.711 32.977-16.191 15.848-26.105-18.512-10.711-32.984 16.184-15.848 26.105zm211.02 8.0156c18.527 10.711 32.977-16.191 15.848-26.105-18.512-10.711-32.98 16.18-15.848 26.105zm-177.3 122.61c18.543 10.633 32.969-16.355 15.727-26.227-18.57-10.637-32.953 16.375-15.727 26.227zm57.82-183.12c18.527 10.711 32.977-16.191 15.848-26.105-18.512-10.711-32.984 16.184-15.848 26.105zm230.32 150.57c18.527 10.711 32.977-16.191 15.848-26.105-18.512-10.711-32.98 16.184-15.848 26.105zm-176.42-6.4844c18.543 10.633 32.969-16.355 15.727-26.227-18.57-10.637-32.953 16.375-15.727 26.227zm75.379 75.379c18.543 10.633 32.969-16.355 15.727-26.227-18.57-10.637-32.953 16.375-15.727 26.227z" fill-rule="evenodd"/>
</svg>
